# xmcd
#
# Track frame offsets: 
#        150
#        17420
#        33975
#        53269
#        75817
#        93987
#        110384
#        133512
#        152340
#        169659
#
# Disc length: 2410 seconds
#
# Revision: 0
# Processed by: cddbd v1.5.2PL0 Copyright (c) Steve Scherf et al.
# Submitted via: ExactAudioCopy v1.0b4
#
DISCID=5909680a
DTITLE=Billy The Kid and The Regulators - I Can't Change
DYEAR=2015
DGENRE=Blues Rock, Electric Blues Guitar
TTITLE0=I Can't Change
TTITLE1=Ain't Gotta Prove Nothing
TTITLE2=What Are We Fighting For
TTITLE3=Story Of The Blues
TTITLE4=That Darn Cat (Feat. Jason Ricci)
TTITLE5=Who (Feat. Jason Ricci)
TTITLE6=Slender Man Blues
TTITLE7=Can't Stand To See You Go (Feat. Jason Ricci and Sean Carney)
TTITLE8=Saturday Night (Feat. Sean Carney, Jason Ricci and Damon Fowler)
TTITLE9=Me And The Devil Blues (Feat. Micah Kesserling)
EXTD=
EXTT0=
EXTT1=
EXTT2=
EXTT3=
EXTT4=
EXTT5=
EXTT6=
EXTT7=
EXTT8=
EXTT9=
PLAYORDER=
